<?xml version="1.0" encoding="utf-8"?>
<!-- Generator: Adobe Illustrator 16.0.4, SVG Export Plug-In . SVG Version: 6.00 Build 0)  -->
<!DOCTYPE svg PUBLIC "-//W3C//DTD SVG 1.1//EN" "http://www.w3.org/Graphics/SVG/1.1/DTD/svg11.dtd">
<svg version="1.1" id="Layer_1" xmlns="http://www.w3.org/2000/svg" xmlns:xlink="http://www.w3.org/1999/xlink" x="0px" y="0px"
	 width="18.032px" height="15.884px" viewBox="0 0 18.032 15.884" enable-background="new 0 0 18.032 15.884" xml:space="preserve">
<path d="M18.032,1.549c0,0.854-0.693,1.548-1.549,1.548H1.548C0.693,3.097,0,2.403,0,1.549l0,0C0,0.693,0.693,0,1.548,0h14.936
	C17.339,0,18.032,0.693,18.032,1.549L18.032,1.549z"/>
<path d="M18.032,7.894c0,0.854-0.693,1.548-1.549,1.548H1.548C0.693,9.441,0,8.748,0,7.894l0,0c0-0.855,0.693-1.549,1.548-1.549
	h14.936C17.339,6.345,18.032,7.038,18.032,7.894L18.032,7.894z"/>
<path d="M18.032,14.336c0,0.854-0.693,1.548-1.549,1.548H1.548C0.693,15.884,0,15.19,0,14.336l0,0c0-0.855,0.693-1.549,1.548-1.549
	h14.936C17.339,12.787,18.032,13.48,18.032,14.336L18.032,14.336z"/>
</svg>
