<?xml version="1.0" encoding="utf-8"?>
<!-- Generator: Adobe Illustrator 16.0.4, SVG Export Plug-In . SVG Version: 6.00 Build 0)  -->
<!DOCTYPE svg PUBLIC "-//W3C//DTD SVG 1.1//EN" "http://www.w3.org/Graphics/SVG/1.1/DTD/svg11.dtd">
<svg version="1.1" id="Layer_1" xmlns="http://www.w3.org/2000/svg" xmlns:xlink="http://www.w3.org/1999/xlink" x="0px" y="0px"
	 width="630px" height="162px" viewBox="0 0 630 162" enable-background="new 0 0 630 162" xml:space="preserve">
<path fill="#E64C3C" d="M144,108V94.5c0-2.485-2.016-4.5-4.5-4.5c-2.486,0-4.5,2.015-4.5,4.5V108c0,12.426-10.074,22.5-22.5,22.5
	c-12.427,0-22.5-10.074-22.5-22.5V94.5c0-2.485-2.015-4.5-4.5-4.5S81,92.015,81,94.5V108c0,15.868,11.735,28.99,27,31.174V153H94.5
	c-2.485,0-4.5,2.014-4.5,4.5c0,2.484,2.015,4.5,4.5,4.5h36c2.485,0,4.5-2.016,4.5-4.5c0-2.486-2.015-4.5-4.5-4.5H117v-13.826
	C132.265,136.991,144,123.869,144,108z"/>
<path fill="#E64C3C" d="M112.5,54c-9.941,0-18,8.059-18,18v9v18v9c0,9.941,8.059,18,18,18s18-8.059,18-18v-9V81v-9
	C130.5,62.059,122.441,54,112.5,54z"/>
<path fill="#FFFFFF" d="M117,63v54c4.971,0,9-4.029,9-9V72C126,67.03,121.971,63,117,63z"/>
<polygon fill="#26B99A" points="0,54 31.5,126 40.75,126 72,54 63,54 36,114.334 9,54 "/>
<path fill="#26B99A" d="M214.458,99c-3.707,10.484-13.702,18-25.458,18c-14.912,0-27-12.088-27-27s12.088-27,27-27
	c11.756,0,21.751,7.514,25.458,18h9.407C219.869,65.473,205.774,54,189,54c-19.882,0-36,16.117-36,36c0,19.881,16.118,36,36,36
	c16.774,0,30.869-11.473,34.865-27H214.458z"/>
<path fill="#26B99A" d="M270,54c-19.882,0-36,16.117-36,36c0,19.881,16.118,36,36,36c10.756,0,20.403-4.723,27-12.201V126h9V90
	C306,70.118,289.882,54,270,54z M270,117c-14.912,0-27-12.088-27-27s12.088-27,27-27s27,12.088,27,27S284.912,117,270,117z"/>
<rect x="324" fill="#26B99A" width="9" height="126"/>
<path fill="#26B99A" d="M405,0.001v66.201C398.403,58.723,388.756,54,378,54c-19.882,0-36,16.119-36,36c0,19.883,16.118,36,36,36
	c10.756,0,20.403-4.723,27-12.201V126h9v-126H405z M378,117c-14.912,0-27-12.088-27-27s12.088-27,27-27s27,12.088,27,27
	S392.912,117,378,117z"/>
<path fill="#26B99A" d="M459,54c-19.882,0-36,16.119-36,36c0,19.883,16.118,36,36,36c10.756,0,20.403-4.723,27-12.201V126h9V90
	C495,70.12,478.882,54,459,54z M459,117c-14.912,0-27-12.088-27-27s12.088-27,27-27s27,12.088,27,27S473.912,117,459,117z"/>
<path fill="#26B99A" d="M526.5,63c13.334,0,13.5,9,13.5,9h9c0,0-1.583-18-22.5-18c-11.916,0-22.5,6.5-22.5,18c0,28.5,36,15.25,36,36
	c0,7-7.249,9-13.5,9c-13.499,0-13.583-9-13.583-9H504c0,0,0.834,18,22.5,18c13.584,0,22.5-6.832,22.5-18c0-28.416-36-15.168-36-36
	C513,64.917,520.667,63,526.5,63z"/>
<path fill="#26B99A" d="M594,54c-10.756,0-20.403,4.723-27,12.201V0.001h-9v90v36h9V90c0-14.912,12.088-27,27-27s27,12.088,27,27v36
	h9V90C630,70.12,613.882,54,594,54z"/>
</svg>
