<?xml version="1.0" encoding="utf-8"?>
<!-- Generator: Adobe Illustrator 16.0.4, SVG Export Plug-In . SVG Version: 6.00 Build 0)  -->
<!DOCTYPE svg PUBLIC "-//W3C//DTD SVG 1.1//EN" "http://www.w3.org/Graphics/SVG/1.1/DTD/svg11.dtd">
<svg version="1.1" id="Layer_1" xmlns="http://www.w3.org/2000/svg" xmlns:xlink="http://www.w3.org/1999/xlink" x="0px" y="0px"
	 width="50px" height="50px" viewBox="0 0 50 50" enable-background="new 0 0 50 50" xml:space="preserve">
<path fill="#FFFFFF" d="M41.651,24.986V18.74c0-1.15-0.933-2.083-2.083-2.083s-2.082,0.933-2.082,2.083v6.246
	c0,5.75-4.661,10.411-10.411,10.411c-5.75,0-10.411-4.661-10.411-10.411V18.74c0-1.15-0.932-2.083-2.082-2.083
	c-1.15,0-2.083,0.933-2.083,2.083v6.246c0,7.343,5.43,13.415,12.493,14.425v6.396h-6.247c-1.149,0-2.083,0.933-2.083,2.084
	c0,1.148,0.933,2.081,2.083,2.081h16.658c1.149,0,2.082-0.933,2.082-2.081c0-1.151-0.933-2.084-2.082-2.084h-6.246v-6.396
	C36.222,38.401,41.651,32.329,41.651,24.986z"/>
<path fill="#FFFFFF" d="M27.075,0c-4.6,0-8.329,3.729-8.329,8.329v4.164v8.329v4.165c0,4.6,3.729,8.329,8.329,8.329
	c4.601,0,8.329-3.729,8.329-8.329v-4.165v-8.329V8.329C35.404,3.729,31.676,0,27.075,0z"/>
</svg>
