<?xml version="1.0" encoding="utf-8"?>
<!-- Generator: Adobe Illustrator 16.0.4, SVG Export Plug-In . SVG Version: 6.00 Build 0)  -->
<!DOCTYPE svg PUBLIC "-//W3C//DTD SVG 1.1//EN" "http://www.w3.org/Graphics/SVG/1.1/DTD/svg11.dtd">
<svg version="1.1" id="Layer_1" xmlns="http://www.w3.org/2000/svg" xmlns:xlink="http://www.w3.org/1999/xlink" x="0px" y="0px"
	 width="63px" height="108px" viewBox="0 0 63 108" enable-background="new 0 0 63 108" xml:space="preserve">
<path fill="#FFFFFF" d="M63,54V40.5c0-2.485-2.016-4.5-4.5-4.5c-2.486,0-4.5,2.015-4.5,4.5V54c0,12.426-10.074,22.5-22.5,22.5
	C19.073,76.5,9,66.426,9,54V40.5C9,38.015,6.985,36,4.5,36S0,38.015,0,40.5V54c0,15.868,11.735,28.991,27,31.174V99H13.5
	c-2.485,0-4.5,2.014-4.5,4.5c0,2.484,2.015,4.5,4.5,4.5h36c2.484,0,4.5-2.016,4.5-4.5c0-2.486-2.016-4.5-4.5-4.5H36V85.174
	C51.266,82.991,63,69.868,63,54z"/>
<path fill="#FFFFFF" d="M31.5,0c-9.941,0-18,8.059-18,18v9v18v9c0,9.941,8.059,18,18,18c9.941,0,18-8.059,18-18v-9V27v-9
	C49.5,8.059,41.441,0,31.5,0z"/>
</svg>
